<svg xmlns="http://www.w3.org/2000/svg" xmlns:xlink="http://www.w3.org/1999/xlink" viewBox="0 0 436.93 429.33"><defs><style>.cls-1{fill:none;}.cls-2{isolation:isolate;}.cls-3{fill:#408dd3;}.cls-4{fill:#2476a8;}.cls-5{fill:#eef0ff;}.cls-6{fill:#d6d9ea;}.cls-7{clip-path:url(#clip-path);}.cls-8{fill:#0c245b;}.cls-9{fill:#f45376;}.cls-10{fill:#fff;}.cls-11{fill:#a6a8ad;}.cls-12,.cls-13,.cls-14,.cls-15,.cls-16,.cls-17,.cls-18,.cls-19,.cls-20,.cls-21,.cls-22,.cls-23,.cls-24,.cls-25,.cls-26,.cls-27,.cls-28,.cls-29,.cls-30,.cls-31,.cls-32,.cls-33,.cls-34,.cls-35,.cls-36,.cls-37,.cls-38,.cls-40,.cls-41{fill-rule:evenodd;}.cls-12{fill:url(#linear-gradient);}.cls-13{fill:url(#New_Gradient_Swatch_113);}.cls-14{fill:url(#New_Gradient_Swatch_113-2);}.cls-15{fill:url(#New_Gradient_Swatch_118);}.cls-16{fill:url(#New_Gradient_Swatch_118-2);}.cls-17{fill:url(#New_Gradient_Swatch_113-3);}.cls-18{fill:url(#linear-gradient-2);}.cls-19{fill:url(#linear-gradient-3);}.cls-20{fill:url(#New_Gradient_Swatch_113-4);}.cls-21{fill:url(#New_Gradient_Swatch_117);}.cls-22{fill:url(#linear-gradient-4);}.cls-23{fill:url(#linear-gradient-5);}.cls-24{fill:url(#linear-gradient-6);}.cls-25{fill:url(#linear-gradient-7);}.cls-26{fill:url(#New_Gradient_Swatch_113-5);}.cls-27{fill:url(#New_Gradient_Swatch_117-2);}.cls-28{fill:url(#linear-gradient-8);}.cls-29{fill:url(#linear-gradient-9);}.cls-30{fill:url(#linear-gradient-10);}.cls-31{fill:url(#linear-gradient-11);}.cls-32{fill:#cc3;}.cls-33{fill:url(#radial-gradient);}.cls-34{fill:url(#radial-gradient-2);}.cls-35,.cls-36,.cls-37,.cls-39,.cls-40{mix-blend-mode:screen;}.cls-35{fill:url(#linear-gradient-12);}.cls-36{fill:url(#linear-gradient-13);}.cls-37{fill:url(#linear-gradient-14);}.cls-38{fill:url(#linear-gradient-15);}.cls-39{fill:url(#radial-gradient-3);}.cls-40{fill:url(#radial-gradient-4);}.cls-41{fill:url(#radial-gradient-5);}</style><clipPath id="clip-path" transform="translate(-746.07 -264.67)"><path class="cls-1" d="M952,383.07c-36.78,0-63.22,7.83-63.22,7.83s14,40.27,63.22,40.27,63.22-40.27,63.22-40.27S988.81,383.07,952,383.07Z"/></clipPath><linearGradient id="linear-gradient" x1="214.19" y1="183.31" x2="214.19" y2="179.08" gradientUnits="userSpaceOnUse"><stop offset="0" stop-color="#204270"/><stop offset="1" stop-color="#335d94"/></linearGradient><linearGradient id="New_Gradient_Swatch_113" x1="422.4" y1="177.84" x2="428.38" y2="177.84" gradientUnits="userSpaceOnUse"><stop offset="0" stop-color="#6287c9"/><stop offset="1" stop-color="#3b597d"/></linearGradient><linearGradient id="New_Gradient_Swatch_113-2" x1="419.92" y1="181.2" x2="424.15" y2="181.2" xlink:href="#New_Gradient_Swatch_113"/><linearGradient id="New_Gradient_Swatch_118" x1="420.41" y1="369.64" x2="436.93" y2="369.64" gradientUnits="userSpaceOnUse"><stop offset="0" stop-color="#1b3840"/><stop offset="1" stop-color="#204954"/></linearGradient><linearGradient id="New_Gradient_Swatch_118-2" x1="420.41" y1="234.54" x2="436.93" y2="234.54" xlink:href="#New_Gradient_Swatch_118"/><linearGradient id="New_Gradient_Swatch_113-3" x1="958.37" y1="694" x2="958.37" y2="439.53" xlink:href="#New_Gradient_Swatch_113"/><linearGradient id="linear-gradient-2" x1="416.22" y1="302.09" x2="420.41" y2="302.09" gradientUnits="userSpaceOnUse"><stop offset="0" stop-color="#4e76a6"/><stop offset="1" stop-color="#87b5f5"/></linearGradient><linearGradient id="linear-gradient-3" x1="420.41" y1="302.09" x2="436.93" y2="302.09" gradientUnits="userSpaceOnUse"><stop offset="0" stop-color="#335d94"/><stop offset="1" stop-color="#204270"/></linearGradient><linearGradient id="New_Gradient_Swatch_113-4" x1="428.83" y1="248.48" x2="428.83" y2="220.59" xlink:href="#New_Gradient_Swatch_113"/><radialGradient id="New_Gradient_Swatch_117" cx="1178.68" cy="520.17" r="10.83" gradientTransform="translate(-739.48 -150.42) scale(0.99 0.74)" gradientUnits="userSpaceOnUse"><stop offset="0" stop-color="#f8fc86"/><stop offset="1" stop-color="#edce20"/></radialGradient><linearGradient id="linear-gradient-4" x1="428.08" y1="224.54" x2="428.08" y2="220.59" gradientUnits="userSpaceOnUse"><stop offset="0" stop-color="#94885c"/><stop offset="1" stop-color="#2c507a"/></linearGradient><linearGradient id="linear-gradient-5" x1="428.83" y1="248.48" x2="428.83" y2="243.94" gradientUnits="userSpaceOnUse"><stop offset="0" stop-color="#99b2bf"/><stop offset="1" stop-color="#9bbd67"/></linearGradient><linearGradient id="linear-gradient-6" x1="431.29" y1="244.81" x2="431.29" y2="223.62" gradientUnits="userSpaceOnUse"><stop offset="0" stop-color="#739cb0"/><stop offset="1" stop-color="#476b96"/></linearGradient><linearGradient id="linear-gradient-7" x1="425.65" y1="248.48" x2="425.65" y2="220.59" xlink:href="#linear-gradient-6"/><linearGradient id="New_Gradient_Swatch_113-5" x1="428.83" y1="383.59" x2="428.83" y2="355.7" xlink:href="#New_Gradient_Swatch_113"/><radialGradient id="New_Gradient_Swatch_117-2" cx="1178.68" cy="702.73" r="10.83" xlink:href="#New_Gradient_Swatch_117"/><linearGradient id="linear-gradient-8" x1="428.08" y1="383.59" x2="428.08" y2="379.64" xlink:href="#linear-gradient-5"/><linearGradient id="linear-gradient-9" x1="428.83" y1="360.24" x2="428.83" y2="355.7" xlink:href="#linear-gradient-4"/><linearGradient id="linear-gradient-10" x1="431.29" y1="380.56" x2="431.29" y2="359.37" xlink:href="#linear-gradient-6"/><linearGradient id="linear-gradient-11" x1="425.65" y1="383.59" x2="425.65" y2="355.7" xlink:href="#linear-gradient-6"/><radialGradient id="radial-gradient" cx="960.27" cy="611.45" r="185.81" gradientTransform="translate(6.59 114.25) scale(0.99 0.74)" gradientUnits="userSpaceOnUse"><stop offset="0"/><stop offset="1" stop-color="#284580"/></radialGradient><radialGradient id="radial-gradient-2" cx="775.01" cy="469.53" r="464.26" gradientTransform="translate(6.59 114.25) scale(0.99 0.74)" gradientUnits="userSpaceOnUse"><stop offset="0" stop-color="#67dbff"/><stop offset="1" stop-color="#0068de"/></radialGradient><linearGradient id="linear-gradient-12" x1="111.23" y1="201.51" x2="156.89" y2="201.51" gradientUnits="userSpaceOnUse"><stop offset="0" stop-color="#006e78"/><stop offset="1" stop-color="#00393d"/></linearGradient><linearGradient id="linear-gradient-13" x1="389.76" y1="406.24" x2="376.49" y2="392.97" gradientUnits="userSpaceOnUse"><stop offset="0"/><stop offset="1" stop-color="#006e78"/></linearGradient><linearGradient id="linear-gradient-14" x1="62.97" y1="243.23" x2="26.26" y2="206.52" gradientUnits="userSpaceOnUse"><stop offset="0" stop-color="#006e78"/><stop offset="1"/></linearGradient><linearGradient id="linear-gradient-15" x1="28.61" y1="336.46" x2="28.61" y2="289.14" gradientUnits="userSpaceOnUse"><stop offset="0" stop-color="#00164f"/><stop offset="0.02" stop-color="#001752"/><stop offset="0.46" stop-color="#04257b"/><stop offset="0.8" stop-color="#062e95"/><stop offset="1" stop-color="#07319e"/></linearGradient><radialGradient id="radial-gradient-3" cx="755.88" cy="668.78" r="23.23" gradientTransform="translate(-363.19 -335.89) scale(0.51 1.07)" gradientUnits="userSpaceOnUse"><stop offset="0" stop-color="#e0b700"/><stop offset="0.05" stop-color="#c09d00"/><stop offset="0.13" stop-color="#937800"/><stop offset="0.22" stop-color="#6c5800"/><stop offset="0.31" stop-color="#4a3d00"/><stop offset="0.41" stop-color="#2f2600"/><stop offset="0.52" stop-color="#1a1500"/><stop offset="0.64" stop-color="#0b0900"/><stop offset="0.78" stop-color="#030200"/><stop offset="1"/></radialGradient><radialGradient id="radial-gradient-4" cx="1144.18" cy="497.9" r="25.13" gradientTransform="translate(6.59 114.25) scale(0.99 0.74)" xlink:href="#radial-gradient-3"/><radialGradient id="radial-gradient-5" cx="864.4" cy="482.94" r="369.03" gradientTransform="translate(6.59 114.25) scale(0.99 0.74)" gradientUnits="userSpaceOnUse"><stop offset="0" stop-color="#284580"/><stop offset="1"/></radialGradient></defs><g class="cls-2"><g id="Layer_1" data-name="Layer 1"><path class="cls-3" d="M972,319c9.47-28-20-54.35-20-54.35S922.58,291,932.06,319A61,61,0,0,1,972,319Z" transform="translate(-746.07 -264.67)"/><path class="cls-4" d="M952,330.46h13.8A40.18,40.18,0,0,0,972,319a61,61,0,0,0-39.93,0,39.93,39.93,0,0,0,6.17,11.44Z" transform="translate(-746.07 -264.67)"/><path class="cls-3" d="M1062.67,346.4c-11,7.86-26.57,8.35-37.47,7.51a92.58,92.58,0,0,1,19.06,42.33,77.27,77.27,0,0,0,25-25.41Z" transform="translate(-746.07 -264.67)"/><path class="cls-4" d="M1025.2,353.91a123.2,123.2,0,0,1-12.29-1.63l10,54a83.85,83.85,0,0,0,21.37-10.06A92.58,92.58,0,0,0,1025.2,353.91Z" transform="translate(-746.07 -264.67)"/><path class="cls-5" d="M1069.22,370.83c-16.21,27.42-46.32,35.47-46.33,35.47l3.48,18.79C1050.45,408.28,1069.22,370.83,1069.22,370.83Z" transform="translate(-746.07 -264.67)"/><path class="cls-6" d="M1026.37,425.09l0,.25c32.84-15.13,42.81-54.51,42.81-54.51S1050.45,408.28,1026.37,425.09Z" transform="translate(-746.07 -264.67)"/><path class="cls-3" d="M1061.88,273.16s-30.94,53.15-2.24,88.25,78.14,4,78.14,4C1046.47,366.86,1061.88,273.16,1061.88,273.16Z" transform="translate(-746.07 -264.67)"/><path class="cls-4" d="M1061.88,273.16s-15.41,93.7,75.9,92.21C1137.78,365.37,1070.1,351.76,1061.88,273.16Z" transform="translate(-746.07 -264.67)"/><path class="cls-3" d="M820.45,416.21s34.71.57,52.63-18.25l5.09,29.29S840.25,451.87,820.45,416.21Z" transform="translate(-746.07 -264.67)"/><path class="cls-3" d="M1083.6,416.21s-34.71.57-52.63-18.25l-5.1,29.29S1063.79,451.87,1083.6,416.21Z" transform="translate(-746.07 -264.67)"/><path class="cls-3" d="M1039.88,394.81C1037.76,354.49,986.83,318,952,318s-85.73,36.5-87.86,76.82,48.39,64.94,87.86,64.94S1042,435.13,1039.88,394.81Z" transform="translate(-746.07 -264.67)"/><path class="cls-5" d="M952,459.75c36.12,0,81.48-20.62,87.29-55a57.48,57.48,0,0,0-13.72-7.8C1003.24,387.6,988,355.62,952,355.62s-51.21,32-73.57,41.31a57.89,57.89,0,0,0-13.72,7.8C870.55,439.13,915.9,459.75,952,459.75Z" transform="translate(-746.07 -264.67)"/><g class="cls-7"><path class="cls-8" d="M952,383.07c-36.78,0-63.22,7.83-63.22,7.83s14,40.27,63.22,40.27,63.22-40.27,63.22-40.27S988.81,383.07,952,383.07Z" transform="translate(-746.07 -264.67)"/><path class="cls-9" d="M952,402.91c-18.38,0-34.16,6.57-41,15.95,9.63,6.88,23,12.31,41,12.31s31.41-5.43,41-12.31C986.18,409.48,970.4,402.91,952,402.91Z" transform="translate(-746.07 -264.67)"/><path class="cls-10" d="M893.79,394.46l4.59,3.28A3.35,3.35,0,0,0,903,397l4.42-5.8a3.36,3.36,0,0,1,4.38-.84L923,397.09a3.35,3.35,0,0,0,4.8-1.58l1.78-4.23a3.34,3.34,0,0,1,5-1.41l7,5a3.34,3.34,0,0,0,4.45-.49l5.95-6.68a3.36,3.36,0,0,1,4.62-.37l9.93,8.09a3.35,3.35,0,0,0,4.44-.19L976.5,390a3.34,3.34,0,0,1,4.79.15l5.76,6.31a3.34,3.34,0,0,0,4.3.54l5.63-3.66a3.34,3.34,0,0,1,5,1.87h0a3.35,3.35,0,0,0,5.1,1.84l6.68-4.55a3.34,3.34,0,0,0-.88-6l-43.53-13.64a3.43,3.43,0,0,0-1.23-.14c-5.27.35-42.1,2.84-43.33,3.54-1,.56-20.44,8.38-30.35,12.35A3.34,3.34,0,0,0,893.79,394.46Z" transform="translate(-746.07 -264.67)"/><path class="cls-10" d="M899.65,410.57l2.21-2a4.26,4.26,0,0,1,6.88,1.69l1,2.62a4.25,4.25,0,0,0,5,2.69L921,414a4.25,4.25,0,0,1,4.74,2.07l3.14,5.67a4.26,4.26,0,0,0,6.65,1l5-4.76a4.25,4.25,0,0,1,6.28.48l4.27,5.51a4.26,4.26,0,0,0,6.9-.23l3.56-5.29a4.24,4.24,0,0,1,5.61-1.33l6.84,3.85a4.25,4.25,0,0,0,6-2l2.61-5.76a4.27,4.27,0,0,1,4.62-2.44L994,412a4.25,4.25,0,0,0,5-3.66l.1-.76a4.25,4.25,0,0,1,5.33-3.58l1.7.46a4.26,4.26,0,0,1,2.68,6l-9.43,18.64a4.21,4.21,0,0,1-2,1.94c-6.12,2.83-31.37,14.37-37.5,15-7,.75-35.48,1.13-37.37,0S900,440.07,897,434.6c-2.09-3.79-3-13.07-3.37-18.44a4.25,4.25,0,0,1,3.72-4.5h0A4.3,4.3,0,0,0,899.65,410.57Z" transform="translate(-746.07 -264.67)"/></g><circle class="cls-10" cx="244.8" cy="85.4" r="14.64"/><circle class="cls-8" cx="244.8" cy="85.4" r="10.97"/><path class="cls-10" d="M993.17,343.8a4.34,4.34,0,1,1,4.34,4.34A4.33,4.33,0,0,1,993.17,343.8Z" transform="translate(-746.07 -264.67)"/><circle class="cls-10" cx="167.1" cy="85.4" r="14.64"/><circle class="cls-8" cx="167.1" cy="85.4" r="10.97"/><path class="cls-10" d="M915.47,343.8a4.34,4.34,0,1,1,4.34,4.34A4.33,4.33,0,0,1,915.47,343.8Z" transform="translate(-746.07 -264.67)"/><ellipse class="cls-11" cx="198.4" cy="100.71" rx="3.85" ry="4.84"/><ellipse class="cls-11" cx="213.5" cy="100.71" rx="3.85" ry="4.84"/><polygon class="cls-12" points="5.98 179.08 422.4 179.08 419.93 183.31 8.46 183.31 5.98 179.08 5.98 179.08"/><polygon class="cls-13" points="428.38 179.08 424.15 180.83 422.4 179.08 424.15 174.85 428.38 179.08 428.38 179.08"/><polygon class="cls-14" points="422.4 179.08 424.15 180.83 419.93 183.31 422.4 179.08 422.4 179.08"/><polygon class="cls-15" points="420.41 401.21 420.41 338.07 436.93 348.95 433.93 391.64 420.41 401.21 420.41 401.21"/><polygon class="cls-16" points="420.41 202.97 420.41 266.11 436.93 255.23 433.93 212.54 420.41 202.97 420.41 202.97"/><path class="cls-17" d="M1166.48,439.53H750.26l-4.19,3.13V690.87l4.19,3.13h416.22l4.19-3.13V442.66Zm-37.2,37a52.13,52.13,0,0,0,0,12.4V663.1H787.63V470.43h341.65Z" transform="translate(-746.07 -264.67)"/><polygon class="cls-18" points="416.22 181.11 416.22 423.07 420.41 424.9 420.41 179.28 416.22 181.11 416.22 181.11"/><polygon class="cls-19" points="420.41 424.9 420.41 352.22 420.41 341.77 420.41 307.71 420.41 251.96 420.41 179.28 424.6 177.98 424.6 208.49 433.93 212.54 436.93 255.23 424.6 260.59 424.6 343.59 436.93 348.95 433.93 391.64 424.6 395.69 424.6 426.2 420.41 424.9 420.41 424.9"/><polygon class="cls-20" points="433.05 244.81 424.6 248.48 424.6 220.59 431.56 223.62 433.05 244.81 433.05 244.81"/><polygon class="cls-21" points="430.89 243.94 426.7 245.76 426.7 223.31 429.53 224.54 430.89 243.94 430.89 243.94"/><polygon class="cls-22" points="431.56 223.62 429.53 224.54 426.7 223.31 424.6 220.59 431.56 223.62 431.56 223.62"/><polygon class="cls-23" points="430.89 243.94 433.05 244.81 424.6 248.48 426.7 245.76 430.89 243.94 430.89 243.94"/><polygon class="cls-24" points="433.05 244.81 430.89 243.94 429.53 224.54 431.56 223.62 433.05 244.81 433.05 244.81"/><polygon class="cls-25" points="426.7 223.31 426.7 245.76 424.6 248.48 424.6 220.59 426.7 223.31 426.7 223.31"/><polygon class="cls-26" points="433.05 359.37 424.6 355.7 424.6 383.59 431.56 380.56 433.05 359.37 433.05 359.37"/><polygon class="cls-27" points="430.89 360.24 426.7 358.42 426.7 380.87 429.53 379.64 430.89 360.24 430.89 360.24"/><polygon class="cls-28" points="431.56 380.56 429.53 379.64 426.7 380.87 424.6 383.59 431.56 380.56 431.56 380.56"/><polygon class="cls-29" points="430.89 360.24 433.05 359.37 424.6 355.7 426.7 358.42 430.89 360.24 430.89 360.24"/><polygon class="cls-30" points="433.05 359.37 430.89 360.24 429.53 379.64 431.56 380.56 433.05 359.37 433.05 359.37"/><polygon class="cls-31" points="426.7 380.87 426.7 358.42 424.6 355.7 424.6 383.59 426.7 380.87 426.7 380.87"/><polygon class="cls-32" points="335.27 197.27 339.31 200.28 393.69 200.28 397.72 197.27 335.27 197.27 335.27 197.27"/><path class="cls-32" d="M1137.52,490.51v3.62l6.27-4.68v-3.63l-6.27,4.69Zm0-7.25v3.62l6.27-4.68v-3.62l-6.27,4.68Zm0-7.24v3.62l6.27-4.69v-3.62l-6.27,4.69Z" transform="translate(-746.07 -264.67)"/><path class="cls-33" d="M754.46,445.78v242h407.83v-242Zm374.82,30.75a52.13,52.13,0,0,0,0,12.4V663.1H787.63V470.43h341.65Z" transform="translate(-746.07 -264.67)"/><path class="cls-34" d="M1140.66,539.56V521.42l-8.23-6.14V468.09H1059l-8.22-6.15h-44.35l-8.23,6.15H937.67l-8.22-6.15H860.67l-8.23,6.15H824.81l-8.23-6.15H776.09V492L772.18,495v32.21l3.91,2.93v10.76l-4.91,3.67v89l4.91,3.67v34.42h364.57V624.66l-8.23-6.15V589.22l8.23-6.14V552.63l4.91-3.67v-5.73Zm-11.38-69.13V663.1H787.47V470.43Zm-121.16-6.14h40.93l5.09,3.8H1003Zm-145.75,0h65.37l5.09,3.8H857.3Zm-83.14,0h35.65l5.08,3.8H784.32v64.53l-5.09-3.79ZM772.65,545l3.44-2.57v9.17l-3.44,2.57Zm0,88V614.56l3.44,2.57V635.6Zm6.58,36.21V532.45l5.09,3.8V665.44H1111.2l-5.09,3.8Zm358.27,0H1111l5.09-3.8h16.37V653.22l5.07-3.8Zm0-43.3V645.8l-5.07,3.8V622.14Zm0-44.13-5.07,3.79V518.9l5.07,3.8Z" transform="translate(-746.07 -264.67)"/><polygon class="cls-35" points="111.23 203.41 156.89 203.41 151.81 199.62 116.31 199.62 111.23 203.41 111.23 203.41"/><polygon class="cls-36" points="369.98 400.77 364.9 404.56 391.44 404.56 391.44 384.75 386.35 388.54 386.35 400.77 369.98 400.77 369.98 400.77"/><polygon class="cls-32" points="394.58 356.21 394.58 322.19 390.55 325.2 390.55 353.19 394.58 356.21 394.58 356.21"/><polygon class="cls-37" points="73.89 203.41 68.8 199.62 33.17 199.62 33.17 264.15 38.25 267.95 38.25 203.41 73.89 203.41 73.89 203.41"/><polygon class="cls-32" points="335.27 197.27 339.31 200.28 393.69 200.28 397.73 197.27 335.27 197.27 335.27 197.27"/><path class="cls-32" d="M1137.52,490.51v3.62l6.27-4.68v-3.63l-6.27,4.69Zm0-7.25v3.62l6.27-4.68v-3.62l-6.27,4.68Zm0-7.24v3.62l6.27-4.69v-3.62l-6.27,4.69Z" transform="translate(-746.07 -264.67)"/><polygon class="cls-38" points="30.02 289.14 27.2 291.25 27.2 334.35 30.02 336.46 30.02 289.14 30.02 289.14"/><path class="cls-32" d="M762.14,649.55v-3.62l6.27,4.68v3.62l-6.27-4.68Zm0-7.25v-3.62l6.27,4.69V647l-6.27-4.69Zm0-7.24v-3.62l6.27,4.68v3.62l-6.27-4.68Z" transform="translate(-746.07 -264.67)"/><ellipse class="cls-39" cx="19.21" cy="378.16" rx="11.75" ry="24.8"/><path class="cls-40" d="M1152.41,482.73c0,13.7-5.26,24.8-11.75,24.8-3.21,0-6.11-2.71-8.23-7.1a35.81,35.81,0,0,1-2.85-9.42c-.11-.68-.21-1.38-.3-2.08a52.13,52.13,0,0,1,0-12.4c.09-.71.19-1.4.3-2.08a39.38,39.38,0,0,1,1.6-6.36,28.32,28.32,0,0,1,1.28-3.13,20.06,20.06,0,0,1,1.79-3c1.85-2.54,4-4,6.41-4C1147.15,457.93,1152.41,469,1152.41,482.73Z" transform="translate(-746.07 -264.67)"/><path class="cls-41" d="M1129.58,470.22V663.38H787.63v-.28h341.65V488.93a52.13,52.13,0,0,1,0-12.4v-6.1H787.63v-.21Z" transform="translate(-746.07 -264.67)"/></g></g></svg>